<?xml version="1.0" encoding="utf-8"?>
<!-- Generator: Adobe Illustrator 27.5.0, SVG Export Plug-In . SVG Version: 6.00 Build 0)  -->
<svg version="1.1" id="Layer_1" xmlns="http://www.w3.org/2000/svg" xmlns:xlink="http://www.w3.org/1999/xlink" x="0px" y="0px"
	 viewBox="0 0 440.3 179.9" style="enable-background:new 0 0 440.3 179.9;" xml:space="preserve">
<style type="text/css">
	.st0{fill:#FFFFFF;}
</style>
<g>
	<path class="st0" d="M29.6,136l-3.1-14.9c-1-5-3.1-6.1-7-5.3c-3.8,0.8-5.2,2.7-4.2,7.6l1,5c0.3,1.6-0.4,2.6-2,3l-3.8,0.8
		c-1.6,0.3-2.7-0.3-3-1.9l-1.1-5.1c-1.8-8.9,0.4-14.4,11.6-16.7c11.2-2.3,15.3,1.9,17.3,10.8l10.1,48.7c0.3,1.5-0.3,2.6-1.9,2.9
		l-3.9,0.8c-1.6,0.3-2.6-0.4-2.9-1.9l-0.3-1.5c-2.4,3.5-6.1,6-9.7,6.7c-5.1,1.1-10.1-1.3-11.7-8.7l-2.5-12.3
		c-1.8-8.9,0.4-14.4,11.6-16.7L29.6,136z M25.5,144.4c-3.8,0.8-5.2,2.8-4.2,7.6l1.8,8.7c1,5,2.6,6.2,6.4,5.4
		c3.9-0.8,5.7-3.2,4.7-8.1l-3.1-14.8L25.5,144.4z"/>
	<path class="st0" d="M64.1,107.1c-1.6,0.3-2.7-0.4-3.1-2l-0.5-2.4c-0.3-1.6,0.4-2.6,2-3l5-1l-2.8-13.3c-2-9.6,0.4-15.6,12.6-18.2
		l2.8-0.6c1.6-0.3,2.7,0.3,3,1.9l0.5,2.4c0.3,1.6-0.4,2.7-2,3.1L79,74.7c-5.5,1.1-6.2,4.2-5.2,9l2.7,13.2l7.3-1.5
		c1.6-0.3,2.7,0.3,3,1.9l0.5,2.4c0.3,1.6-0.4,2.7-2,3.1l-7.3,1.5l11.2,54.3c0.3,1.6-0.4,2.7-2,3.1l-3.8,0.8c-1.6,0.3-2.7-0.4-3.1-2
		l-11.2-54.3L64.1,107.1z"/>
	<path class="st0" d="M93.2,95.9c-0.3-1.6,0.4-2.6,2-3l3.8-0.8c1.6-0.3,2.7,0.3,3,1.9l10,48.2c1,5,2.6,6.2,6.4,5.4
		c3.9-0.8,5.7-3.2,4.7-8.1l-9.9-47.9c-0.3-1.6,0.3-2.6,1.9-2.9l3.9-0.8c1.6-0.3,2.6,0.3,2.9,1.9l12.3,59.4c0.3,1.5-0.3,2.6-1.9,2.9
		l-3.9,0.8c-1.6,0.3-2.6-0.4-2.9-1.9l-0.3-1.5c-2.4,3.5-6.1,6-9.7,6.7c-5.1,1.1-10.1-1.3-11.7-8.7L93.2,95.9z"/>
	<path class="st0" d="M172.5,141.5c0.3,1.5-0.3,2.6-1.9,2.9l-3.9,0.8c-1.6,0.3-2.6-0.4-2.9-1.9l-10-48.3c-1-4.9-2.7-6.2-6.5-5.4
		c-3.9,0.8-5.6,3.3-4.6,8.2l9.9,47.9c0.3,1.5-0.4,2.6-2,3l-3.8,0.8c-1.6,0.3-2.7-0.4-3-1.9l-12.3-59.4c-0.3-1.6,0.4-2.6,2-3l3.8-0.8
		c1.6-0.3,2.7,0.3,3,1.9l0.3,1.5c2.3-3.5,6-5.9,9.6-6.7c5.1-1.1,10.1,1.3,11.7,8.7L172.5,141.5z"/>
	<path class="st0" d="M210.7,133.6c0.3,1.5-0.3,2.6-1.9,2.9l-3.9,0.8c-1.6,0.3-2.6-0.4-2.9-1.9l-10-48.3c-1-4.9-2.7-6.2-6.5-5.4
		c-3.9,0.8-5.6,3.3-4.6,8.2l9.9,47.9c0.3,1.5-0.4,2.6-2,3l-3.8,0.8c-1.6,0.3-2.7-0.4-3-1.9l-12.3-59.4c-0.3-1.6,0.4-2.6,2-3l3.8-0.8
		c1.6-0.3,2.7,0.3,3,1.9l0.3,1.5c2.3-3.5,6-5.9,9.6-6.7c5.1-1.1,10.1,1.3,11.7,8.7L210.7,133.6z"/>
	<path class="st0" d="M212.4,71.2l11.3,31.5l6.4,19.8l0.6-0.1l-2-20.7l-2.2-33.4c-0.1-1.8,0.5-2.6,2.4-3l3.7-0.8
		c1.6-0.3,2.8,0.4,2.9,2.5l4.5,84.5c0.1,1.7-0.4,2.6-2.3,3l-3.7,0.8c-1.6,0.3-2.9-0.4-2.9-2.5l-0.8-20.8l-2,0.4
		c-1.7,0.4-2.7-0.3-3.4-1.8l-21.2-57c-0.8-2,0.2-3.2,1.7-3.5l3.7-0.8C211,69,211.9,69.6,212.4,71.2z"/>
	<path class="st0" d="M288.5,82.4l-3.1-14.9c-1-5-3.1-6.1-7-5.3c-3.8,0.8-5.2,2.7-4.2,7.6l1,5c0.3,1.6-0.4,2.6-2,3l-3.8,0.8
		c-1.6,0.3-2.7-0.3-3-1.9l-1.1-5.1c-1.8-8.9,0.4-14.4,11.6-16.7c11.2-2.3,15.3,1.9,17.3,10.8l10.1,48.7c0.3,1.5-0.3,2.6-1.9,2.9
		l-3.9,0.8c-1.6,0.3-2.6-0.4-2.9-1.9l-0.3-1.5c-2.4,3.5-6.1,6-9.7,6.7c-5.1,1.1-10.1-1.3-11.7-8.7l-2.5-12.3
		c-1.8-8.9,0.4-14.4,11.6-16.7L288.5,82.4z M284.4,90.8c-3.8,0.8-5.2,2.8-4.2,7.6l1.8,8.7c1,5,2.6,6.2,6.4,5.4
		c3.9-0.8,5.7-3.2,4.7-8.1L290,89.7L284.4,90.8z"/>
	<path class="st0" d="M342.4,106.3c0.3,1.5-0.3,2.6-1.9,2.9l-3.9,0.8c-1.6,0.3-2.6-0.4-2.9-1.9l-10-48.3c-1-4.9-2.7-6.2-6.5-5.4
		c-3.9,0.8-5.6,3.3-4.6,8.2l9.9,47.9c0.3,1.5-0.4,2.6-2,3l-3.8,0.8c-1.6,0.3-2.7-0.4-3-1.9l-12.3-59.4c-0.3-1.6,0.4-2.6,2-3l3.8-0.8
		c1.6-0.3,2.7,0.3,3,1.9l0.3,1.5c2.3-3.5,6-5.9,9.6-6.7c5.1-1.1,10.1,1.3,11.7,8.7L342.4,106.3z"/>
	<path class="st0" d="M382.8,109c2,9.6-0.4,15.6-12.5,18.1l-5.7,1.2c-1.6,0.3-2.7-0.3-3-1.9L361,124c-0.3-1.6,0.4-2.7,2-3.1l5.7-1.2
		c5.4-1.1,6.2-4.2,5.2-9l-2.5-12c-2.4,3.5-6.1,6-9.7,6.7c-5.1,1.1-10.1-1.3-11.7-8.7l-9.1-44.2c-1.5-7.4,2.2-11.5,7.3-12.6
		c3.6-0.7,8,0,11.6,2.3l-0.3-1.5c-0.3-1.6,0.3-2.6,1.9-2.9l3.9-0.8c1.6-0.3,2.6,0.3,2.9,1.9L382.8,109z M358.2,91.3
		c1,5,2.6,6.2,6.4,5.4c3.9-0.8,5.7-3.2,4.7-8.1l-7.5-36.3c-1-4.9-3.6-6.5-7.6-5.7c-3.8,0.8-4.8,2.7-3.7,7.5L358.2,91.3z"/>
	<path class="st0" d="M398.7,94.5c0.3,1.6-0.4,2.7-2,3.1l-3.8,0.8c-1.6,0.3-2.7-0.4-3.1-2L371.7,8.9c-0.3-1.6,0.4-2.6,2-3l3.8-0.8
		c1.6-0.3,2.7,0.3,3,1.9L398.7,94.5z"/>
	<path class="st0" d="M430.9,58c0.4,1.7-0.4,2.9-2.1,3.2l-17.3,3.6l3.2,15.3c1,4.9,3.1,6.1,6.9,5.3c3.9-0.8,5.3-2.8,4.3-7.6
		l-0.9-4.2c-0.3-1.6,0.3-2.6,1.9-2.9l3.9-0.8c1.6-0.3,2.6,0.3,2.9,1.9l0.9,4.3c1.8,8.9-0.4,14.4-11.6,16.7s-15.5-1.9-17.3-10.8
		l-7.9-37.9c-1.8-8.9,0.4-14.4,11.6-16.7s15.5,1.9,17.3,10.8L430.9,58z M409.9,57.5l11.2-2.3L418,40c-1-5-3.1-6.1-7-5.3
		c-3.8,0.8-5.2,2.7-4.2,7.6L409.9,57.5z"/>
</g>
</svg>
